<svg xmlns="http://www.w3.org/2000/svg" xmlns:xlink="http://www.w3.org/1999/xlink" width="500" zoomAndPan="magnify" viewBox="0 0 375 374.999991" height="500" preserveAspectRatio="xMidYMid meet" version="1.0"><defs><clipPath id="4234efd91a"><path d="M 114 112.5 L 260.90625 112.5 L 260.90625 262.5 L 114 262.5 Z M 114 112.5 " clip-rule="nonzero"/></clipPath></defs><g clip-path="url(#4234efd91a)"><path fill="#757351" d="M 159.070312 139.667969 L 161.929688 139.902344 C 162.117188 139.914062 162.542969 140 163.304688 140.40625 C 163.949219 140.75 164.613281 141.234375 165.269531 141.84375 C 165.882812 142.402344 166.414062 143.339844 166.867188 144.628906 C 167.339844 145.96875 167.574219 147.570312 167.574219 149.386719 L 167.574219 221.53125 L 135.546875 187.507812 L 145.820312 176.511719 C 146.863281 175.402344 147.96875 174.503906 149.109375 173.847656 C 150.238281 173.195312 151.191406 172.789062 151.945312 172.632812 C 152.722656 172.472656 153.511719 172.410156 154.289062 172.441406 C 155.433594 172.496094 155.710938 172.570312 155.738281 172.574219 C 156.007812 172.652344 156.121094 172.707031 156.15625 172.726562 L 161.828125 175.769531 L 143.488281 156.210938 L 114.054688 187.457031 L 184.664062 262.480469 L 184.664062 112.5 Z M 143.480469 159.300781 L 153.972656 170.476562 C 153.121094 170.472656 152.269531 170.554688 151.429688 170.726562 C 150.414062 170.9375 149.222656 171.441406 147.875 172.21875 C 146.546875 172.984375 145.273438 174.011719 144.085938 175.273438 L 132.65625 187.507812 L 169.824219 226.996094 L 169.824219 149.386719 C 169.824219 147.375 169.550781 145.582031 169.015625 144.058594 C 168.460938 142.480469 167.75 141.285156 166.898438 140.503906 C 166.105469 139.769531 165.289062 139.175781 164.476562 138.742188 C 164.066406 138.527344 163.6875 138.351562 163.328125 138.226562 L 182.417969 117.960938 L 182.417969 257.015625 L 116.953125 187.457031 Z M 205.246094 148.144531 L 205.246094 182.53125 L 216.195312 182.53125 L 222.253906 175.929688 L 222.253906 166.507812 Z M 207.492188 180.574219 L 207.492188 153.675781 L 220.011719 167.191406 L 220.011719 175.242188 L 215.117188 180.574219 Z M 216.265625 192.511719 L 205.246094 192.511719 L 205.246094 226.953125 L 222.253906 208.785156 L 222.253906 198.988281 Z M 215.1875 194.464844 L 220.007812 199.675781 L 220.007812 208.089844 L 207.488281 221.46875 L 207.488281 194.464844 Z M 246.265625 172.058594 L 246.265625 203.257812 L 260.9375 187.710938 Z M 258.039062 187.699219 L 248.507812 197.796875 L 248.507812 177.539062 Z M 237.09375 162.273438 L 190.484375 112.550781 L 190.484375 262.355469 L 236.839844 213.242188 L 237.09375 212.972656 L 237.09375 194.984375 L 230.039062 187.457031 L 237.09375 179.929688 Z M 234.847656 179.238281 L 227.136719 187.457031 L 234.847656 195.679688 L 234.847656 212.269531 L 192.726562 256.894531 L 192.726562 118.035156 L 234.847656 162.96875 Z M 234.847656 179.238281 " fill-opacity="1" fill-rule="nonzero"/></g></svg>